<?xml version="1.0" encoding="UTF-8" standalone="no"?>
<!-- Created with Inkscape (http://www.inkscape.org/) -->

<svg
   width="1080"
   height="1080"
   viewBox="0 0 1080 1080"
   version="1.1"
   id="svg1"
   xml:space="preserve"
   inkscape:export-filename="arrow-up.svg"
   inkscape:export-xdpi="96"
   inkscape:export-ydpi="96"
   xmlns:inkscape="http://www.inkscape.org/namespaces/inkscape"
   xmlns:sodipodi="http://sodipodi.sourceforge.net/DTD/sodipodi-0.dtd"
   xmlns="http://www.w3.org/2000/svg"
   xmlns:svg="http://www.w3.org/2000/svg"><sodipodi:namedview
     id="namedview1"
     pagecolor="#505050"
     bordercolor="#eeeeee"
     borderopacity="1"
     inkscape:showpageshadow="0"
     inkscape:pageopacity="0"
     inkscape:pagecheckerboard="0"
     inkscape:deskcolor="#505050"
     inkscape:document-units="px"
     inkscape:zoom="0.71944444"
     inkscape:cx="540"
     inkscape:cy="540"
     inkscape:window-width="1920"
     inkscape:window-height="991"
     inkscape:window-x="-9"
     inkscape:window-y="-9"
     inkscape:window-maximized="1"
     inkscape:current-layer="layer1" /><defs
     id="defs1" /><g
     inkscape:label="Layer 1"
     inkscape:groupmode="layer"
     id="layer1"><path
       d="M 148.49999,335.35228 470.6591,27.61364 C 488.45455,9.2045414 512.69319,0 539.38635,0 c 26.69321,0 50.625,9.2045414 68.72728,27.61364 l 323.38639,307.73864 c 38.35227,36.51137 38.35227,96.03409 0,132.54546 -38.35229,36.51138 -100.32956,36.51138 -138.68181,0 L 638.18183,320.3182 v 665.79547 c 0,51.85223 -43.87501,93.88633 -98.18182,93.88633 -54.30683,0 -98.18182,-42.0341 -98.18182,-93.88633 V 320.3182 L 287.18181,468.20455 c -38.35228,36.51138 -100.32955,36.51138 -138.68182,0 -38.35229,-36.81818 -38.35229,-96.03409 0,-132.85227 z"
       id="path1"
       style="fill:#222429;fill-opacity:1;stroke-width:3.06818" /></g></svg>
